<svg width="465" height="465" viewBox="0 0 465 465" fill="none" xmlns="http://www.w3.org/2000/svg">
<path d="M412.389 0H376.767V33.614H412.389C422.853 33.614 431.366 42.127 431.366 52.591V88.213H464.98V52.591C464.98 23.592 441.388 0 412.389 0ZM33.614 52.591C33.614 42.127 42.127 33.614 52.591 33.614H88.214V0H52.591C23.592 0 0 23.592 0 52.591V88.213H33.614V52.591ZM431.366 412.389C431.366 422.853 422.853 431.366 412.389 431.366H376.767V464.98H412.389C441.388 464.98 464.98 441.388 464.98 412.389V376.766H431.366V412.389ZM33.614 412.389V376.766H0V412.389C0 441.388 23.592 464.98 52.591 464.98H88.214V431.366H52.591C42.127 431.366 33.614 422.853 33.614 412.389Z" fill="#474747"/>
<path d="M448.173 215.683H16.8071V249.297H448.173V215.683Z" fill="#474747"/>
</svg>
